# xmcd
#
# Track frame offsets: 
#        150
#        16283
#        35506
#        59784
#        80769
#        104927
#        124060
#        152785
#        179755
#        209553
#        230388
#        258881
#        273611
#
# Disc length: 4175 seconds
#
# Revision: 0
# Processed by: cddbd v1.5.2PL0 Copyright (c) Steve Scherf et al.
# Submitted via: ExactAudioCopy v1.0b4
#
DISCID=c8104d0d
DTITLE=Harriet Lewis and Gregor Hilden Band - Soulful Stew
DYEAR=2009
DGENRE=Blues
TTITLE0=Harriet Lewis and Gregor Hilden B - Wade In The Water
TTITLE1=Harriet Lewis and Gregor Hilden B - Hard Drivin' Mama
TTITLE2=Harriet Lewis and Gregor Hilden B - Reverend
TTITLE3=Harriet Lewis and Gregor Hilden B - Love Sneaking Up On You
TTITLE4=Harriet Lewis and Gregor Hilden B - Since I Fell For You
TTITLE5=Harriet Lewis and Gregor Hilden B - On Broadway
TTITLE6=Harriet Lewis and Gregor Hilden B - Dr. Feelgood
TTITLE7=Harriet Lewis and Gregor Hilden B - Soulful Stew
TTITLE8=Harriet Lewis and Gregor Hilden B - No Words Can Tell
TTITLE9=Harriet Lewis and Gregor Hilden B - What a Difference a Day Make
TTITLE9=s
TTITLE10=Harriet Lewis and Gregor Hilden B - Sunday Kind of Love
TTITLE11=Harriet Lewis and Gregor Hilden B - Running and Hiding
TTITLE12=Harriet Lewis and Gregor Hilden B - Amazing Grace
EXTD=
EXTT0=
EXTT1=
EXTT2=
EXTT3=
EXTT4=
EXTT5=
EXTT6=
EXTT7=
EXTT8=
EXTT9=
EXTT10=
EXTT11=
EXTT12=
PLAYORDER=
